<svg width="123" height="110" viewBox="0 0 123 110" fill="none" xmlns="http://www.w3.org/2000/svg">
<path id="Vector" d="M122.46 76.4074C122.459 83.6173 120.097 90.6284 115.737 96.3686C111.377 102.109 105.257 106.262 98.3142 108.194C91.3713 110.125 83.9872 109.728 77.291 107.064C70.5949 104.4 64.9551 99.6146 61.2342 93.4403C58.3432 98.2431 54.2766 102.23 49.4184 105.024C44.5601 107.818 39.0704 109.328 33.4672 109.41C27.864 109.493 22.3322 108.146 17.3938 105.496C12.4553 102.846 8.27313 98.9815 5.24186 94.2659C2.21058 89.5504 0.430193 84.1399 0.0687017 78.545C-0.292789 72.9501 0.776542 67.3553 3.17578 62.2886C5.57502 57.2218 9.22506 52.8503 13.7814 49.5864C18.3378 46.3226 23.6502 44.2741 29.2174 43.6343C27.5721 38.6813 27.1249 33.4084 27.9125 28.2488C28.7001 23.0892 30.7 18.1902 33.7479 13.9543C36.7959 9.71832 40.8048 6.26633 45.4454 3.88191C50.086 1.49749 55.2258 0.248664 60.4426 0.238044C65.6594 0.227431 70.8042 1.45535 75.4545 3.82088C80.1048 6.18639 84.1277 9.62202 87.1928 13.8455C90.2579 18.069 92.2777 22.9598 93.0863 28.1161C93.8949 33.2725 93.4691 38.5472 91.844 43.5069C100.159 44.1036 107.939 47.8288 113.619 53.933C119.299 60.0372 122.458 68.0673 122.46 76.4074Z" fill="#FF0064"/>
</svg>
